<svg id="Layer_1" data-name="Layer 1" xmlns="http://www.w3.org/2000/svg" width="141" height="251" viewBox="0 0 141 251"><defs><style>.cls-1{opacity:0.06;}.cls-2,.cls-4{fill:#fff;}.cls-3{fill:none;}.cls-3,.cls-4,.cls-5,.cls-6{stroke:#000;stroke-miterlimit:10;}.cls-5{fill:#e6e6e6;}.cls-6{fill:#ccc;}</style></defs><title>arrow</title><g class="cls-1"><ellipse cx="71" cy="212.3" rx="46" ry="13.3"/></g><polygon class="cls-2" points="67.42 211.01 47.01 183.78 89 183 67.42 211.01"/><rect class="cls-2" x="56.5" y="31.5" width="22" height="95"/><path d="M78,32v94H57V32H78m1-1H56v96H79V31Z"/><line class="cls-3" x1="4.5" y1="126.5" x2="131.5" y2="126.5"/><line class="cls-4" x1="67.5" y1="211.5" x2="4.5" y2="126.5"/><polygon class="cls-5" points="67.67 211.11 131 127 131.49 137.26 76.11 211.5 67.67 211.11"/><polyline class="cls-6" points="78.5 31.5 83.5 40.5 83.5 127"/><path class="cls-2" d="M76.43,126.18c-3.69-.2-7.38.27-11.07.33-1.1,0-2.19,0-3.28,0l-3.68-.06"/><path class="cls-2" d="M76.43,124.68c-6-.2-12,.35-18,.25a1.5,1.5,0,0,0,0,3c6,.1,12-.45,18-.25,1.93.07,1.93-2.93,0-3Z"/><path class="cls-2" d="M76.48,127.48a1.5,1.5,0,0,0,0-3,1.5,1.5,0,0,0,0,3Z"/><path class="cls-2" d="M76.5,127.47a1.5,1.5,0,0,0,0-3,1.5,1.5,0,0,0,0,3Z"/><path class="cls-2" d="M76.5,127.52a1.5,1.5,0,0,0,0-3,1.5,1.5,0,0,0,0,3Z"/><path class="cls-2" d="M76.52,127.53a1.5,1.5,0,0,0,0-3,1.5,1.5,0,0,0,0,3Z"/><path class="cls-2" d="M76.44,127.89a1.5,1.5,0,0,0,0-3,1.5,1.5,0,0,0,0,3Z"/><path class="cls-2" d="M76.48,128a1.5,1.5,0,0,0,0-3,1.5,1.5,0,0,0,0,3Z"/><path class="cls-2" d="M76.56,128.08a1.5,1.5,0,0,0,0-3,1.5,1.5,0,0,0,0,3Z"/><path class="cls-2" d="M76.52,127.67a1.5,1.5,0,0,0,0-3,1.5,1.5,0,0,0,0,3Z"/><path class="cls-2" d="M76.52,127.67a1.5,1.5,0,0,0,0-3,1.5,1.5,0,0,0,0,3Z"/><path class="cls-2" d="M76.53,128.52a1.5,1.5,0,0,0,0-3,1.5,1.5,0,0,0,0,3Z"/><path class="cls-2" d="M76.53,128.42a1.5,1.5,0,0,0,0-3,1.5,1.5,0,0,0,0,3Z"/><path class="cls-2" d="M76.54,128.42a1.5,1.5,0,0,0,0-3,1.5,1.5,0,0,0,0,3Z"/><path class="cls-2" d="M76.54,128.42a1.5,1.5,0,0,0,0-3,1.5,1.5,0,0,0,0,3Z"/><path class="cls-2" d="M76.57,128.4a1.5,1.5,0,0,0,0-3,1.5,1.5,0,0,0,0,3Z"/><path class="cls-2" d="M76.57,128.24a1.5,1.5,0,0,0,0-3,1.5,1.5,0,0,0,0,3Z"/><path class="cls-2" d="M76.56,127.93a1.5,1.5,0,0,0,0-3,1.5,1.5,0,0,0,0,3Z"/><path class="cls-2" d="M76.57,127.85a1.5,1.5,0,0,0,0-3,1.5,1.5,0,0,0,0,3Z"/><path class="cls-2" d="M76.57,127.74a1.5,1.5,0,0,0,0-3,1.5,1.5,0,0,0,0,3Z"/><path class="cls-2" d="M58.5,128.48a1.5,1.5,0,0,0,0-3,1.5,1.5,0,0,0,0,3Z"/><path class="cls-2" d="M58.45,128.41a1.5,1.5,0,0,0,0-3,1.5,1.5,0,0,0,0,3Z"/><path class="cls-2" d="M58.44,128.36a1.5,1.5,0,0,0,0-3,1.5,1.5,0,0,0,0,3Z"/><path class="cls-2" d="M58.43,128.3a1.5,1.5,0,0,0,0-3,1.5,1.5,0,0,0,0,3Z"/><path class="cls-2" d="M58.43,128.3a1.5,1.5,0,0,0,0-3,1.5,1.5,0,0,0,0,3Z"/><path class="cls-2" d="M58.41,128.42a1.5,1.5,0,0,0,0-3,1.5,1.5,0,0,0,0,3Z"/><path class="cls-2" d="M58.43,127.62a1.5,1.5,0,0,0,0-3,1.5,1.5,0,0,0,0,3Z"/><path class="cls-4" d="M57.36,30.83c.43-12.16-.7-14.3-5.57-19.45-3.63-3.84-10.71-5-14.4-2.15-7,5.44-.49,24.29,4.24,24.66,2.56.2,5.22-5,5.9-8.84.09-.52,1.25-7.73-3.54-11.64C38.53,9,28.8,11.64,26.27,16.74c-3.68,7.42,7.91,19.85,12.51,18.53,2.83-.81,4.62-7.29,2.41-12.41a11.33,11.33,0,0,0-10-6.77c-5.37-.2-10.19,3.54-11.12,7.51-1.3,5.51,4.42,13.56,15.09,15.17"/></svg>
